<?xml version="1.0" encoding="UTF-8" standalone="no"?>
<!DOCTYPE svg PUBLIC "-//W3C//DTD SVG 1.1//EN" "http://www.w3.org/Graphics/SVG/1.1/DTD/svg11.dtd">
<svg xmlns="http://www.w3.org/2000/svg" xmlns:xlink="http://www.w3.org/1999/xlink" version="1.1" preserveAspectRatio="xMidYMid meet" viewBox="0 0 640 640" width="640" height="640">
  <defs>
    <path d="M0 640L640 640L640 0C536.19 20.08 429.52 20.08 320 0C210.48 -20.08 103.81 -20.08 0 0L0 640Z" id="c7XC4hP02z"/>
    <path d="M0 0L640 0L640 640L0 640L0 640L0 0ZM21.43 598.96L225.35 598.32L320.59 440.27L416.43 598.96L618.57 598.96L432.65 300.3L593.46 41.04L400.21 41.04L320.59 172.23L241.28 41.04L37.72 41.04L213.18 300.3L213.18 300.3L21.43 598.96Z" id="b1DkjWZ41q"/>
  </defs>
  <g>
    <g>
      <g>
        <use xlink:href="#c7XC4hP02z" opacity="1" fill="#00b7e0" fill-opacity="1"/>
        <g>
          <use xlink:href="#c7XC4hP02z" opacity="1" fill-opacity="0" stroke="#000000" stroke-width="1" stroke-opacity="1"/>
        </g>
      </g>
      <g>
        <use xlink:href="#b1DkjWZ41q" opacity="1" fill="#000000" fill-opacity="1"/>
      </g>
    </g>
  </g>
</svg>
